<svg xmlns="http://www.w3.org/2000/svg" xmlns:xlink="http://www.w3.org/1999/xlink" viewBox="0 0 1024 768"><defs><style>.cls-1,.cls-2{fill:none;}.cls-2{stroke:#ea7657;stroke-linecap:round;stroke-width:30px;}.cls-2,.cls-4{stroke-miterlimit:10;}.cls-3{clip-path:url(#clip-path);}.cls-4{fill:#ea7657;stroke:#ffe67b;stroke-width:15.68px;}</style><clipPath id="clip-path"><path class="cls-1" d="M1338.17,47H42.83C32.43,47,24,40.28,24,32s8.43-15,18.83-15H1338.17c10.4,0,18.83,6.72,18.83,15S1348.57,47,1338.17,47Z"/></clipPath></defs><title>banner</title><g id="Layer_8" data-name="Layer 8"><line class="cls-2" x1="39" y1="32" x2="1357" y2="32"/><g class="cls-3"><line class="cls-4" x1="-47.55" y1="68.69" x2="44.56" y2="-4.69"/><line class="cls-4" x1="22.94" y1="68.69" x2="115.05" y2="-4.69"/><line class="cls-4" x1="93.43" y1="68.69" x2="185.54" y2="-4.69"/><line class="cls-4" x1="163.92" y1="68.69" x2="256.03" y2="-4.69"/><line class="cls-4" x1="234.41" y1="68.69" x2="326.52" y2="-4.69"/><line class="cls-4" x1="304.9" y1="68.69" x2="397" y2="-4.69"/><line class="cls-4" x1="375.38" y1="68.69" x2="467.49" y2="-4.69"/><line class="cls-4" x1="445.87" y1="68.69" x2="537.98" y2="-4.69"/><line class="cls-4" x1="516.36" y1="68.69" x2="608.47" y2="-4.69"/><line class="cls-4" x1="586.85" y1="68.69" x2="678.96" y2="-4.69"/><line class="cls-4" x1="657.34" y1="68.69" x2="749.45" y2="-4.69"/><line class="cls-4" x1="727.83" y1="68.69" x2="819.93" y2="-4.69"/><line class="cls-4" x1="798.31" y1="68.69" x2="890.42" y2="-4.69"/><line class="cls-4" x1="868.8" y1="68.69" x2="960.91" y2="-4.69"/><line class="cls-4" x1="939.29" y1="68.69" x2="1031.4" y2="-4.69"/><line class="cls-4" x1="1009.78" y1="68.69" x2="1101.89" y2="-4.69"/></g></g></svg>