<svg xmlns="http://www.w3.org/2000/svg" xmlns:xlink="http://www.w3.org/1999/xlink" viewBox="0 0 1024 768"><defs><style>.cls-1,.cls-2{fill:none;}.cls-2{stroke:#ea7657;stroke-linecap:round;stroke-width:30px;}.cls-2,.cls-4{stroke-miterlimit:10;}.cls-3{clip-path:url(#clip-path);}.cls-4{fill:#ea7657;stroke:#ffe67b;stroke-width:14px;}</style><clipPath id="clip-path"><path class="cls-1" d="M1090,47H58a15,15,0,0,1,0-30H1090a15,15,0,0,1,0,30Z"/></clipPath></defs><title>banner</title><g id="Layer_8" data-name="Layer 8"><line class="cls-2" x1="58" y1="32" x2="1090" y2="32"/><g class="cls-3"><line class="cls-4" x1="-14" y1="68.69" x2="59.38" y2="-4.69"/><line class="cls-4" x1="57.13" y1="68.69" x2="130.52" y2="-4.69"/><line class="cls-4" x1="128.27" y1="68.69" x2="201.65" y2="-4.69"/><line class="cls-4" x1="199.4" y1="68.69" x2="272.78" y2="-4.69"/><line class="cls-4" x1="270.53" y1="68.69" x2="343.92" y2="-4.69"/><line class="cls-4" x1="341.67" y1="68.69" x2="415.05" y2="-4.69"/><line class="cls-4" x1="412.8" y1="68.69" x2="486.18" y2="-4.69"/><line class="cls-4" x1="483.93" y1="68.69" x2="557.32" y2="-4.69"/><line class="cls-4" x1="555.07" y1="68.69" x2="628.45" y2="-4.69"/><line class="cls-4" x1="626.2" y1="68.69" x2="699.58" y2="-4.69"/><line class="cls-4" x1="697.33" y1="68.69" x2="770.72" y2="-4.69"/><line class="cls-4" x1="768.47" y1="68.69" x2="841.85" y2="-4.69"/><line class="cls-4" x1="839.6" y1="68.69" x2="912.98" y2="-4.69"/><line class="cls-4" x1="910.73" y1="68.69" x2="984.12" y2="-4.69"/><line class="cls-4" x1="981.87" y1="68.69" x2="1055.25" y2="-4.69"/></g></g></svg>