<svg xmlns="http://www.w3.org/2000/svg" viewBox="0 0 72 72"><defs><style>.cls-1{fill:#f7a73c;}.cls-2{fill:#ffe67b;}</style></defs><title>fb</title><g id="Layer_7" data-name="Layer 7"><circle class="cls-1" cx="35.63" cy="35.63" r="35.63"/><path class="cls-2" d="M40.43,14.15c4.11,0,5.44,1.9,4.24,6-.53,1.8-2,1-3,1-2,0-3,.44-3.2,2.77-.21,2.85.88,3.65,3.46,3.27,2.09-.31,3,.07,2.79,2.75C44.51,33.08,44,35,40.33,34.3c-1.82-.36-1.76.94-1.76,2.2,0,5.23,0,10.47,0,15.71,0,1.61-.38,2.2-2.12,2.24-6.26.13-6.25.2-6.25-6.09,0-4,0-8.1,0-12.15,0-1.3-.23-2.18-1.75-1.92-2.19.36-2.46-.88-2.31-2.6a14.88,14.88,0,0,0,0-2.67c-.12-1.4.42-2.09,1.85-1.86,2,.32,2.35-.66,2.22-2.37a17.27,17.27,0,0,1,.13-4.13C31.19,16,34.15,14.16,40.43,14.15Z"/></g></svg>