<svg xmlns="http://www.w3.org/2000/svg" viewBox="0 0 1024 768"><defs><style>.cls-1{fill:#f7a73c;}.cls-2{fill:#ffe67b;}</style></defs><title>fb</title><g id="Layer_7" data-name="Layer 7"><circle class="cls-1" cx="420.94" cy="391.55" r="37.8"/><path class="cls-2" d="M426,368.76c4.37,0,5.78,2,4.51,6.37-.56,1.91-2.1,1-3.16,1-2.12,0-3.21.47-3.39,2.94-.23,3,.93,3.87,3.67,3.47,2.22-.33,3.18.08,3,2.92-.25,3.35-.75,5.4-4.69,4.64-1.94-.38-1.87,1-1.87,2.33,0,5.56,0,11.12.05,16.67,0,1.72-.41,2.34-2.26,2.38-6.63.14-6.63.22-6.63-6.46,0-4.3,0-8.6,0-12.89,0-1.38-.25-2.31-1.86-2-2.32.38-2.61-.94-2.45-2.76a16.72,16.72,0,0,0,0-2.83c-.13-1.48.44-2.21,2-2,2.08.34,2.49-.71,2.36-2.51a18.4,18.4,0,0,1,.13-4.39C416.23,370.76,419.37,368.77,426,368.76Z"/></g></svg>