<svg xmlns="http://www.w3.org/2000/svg" viewBox="0 0 72 72"><defs><style>.cls-1{fill:#f7a73c;}.cls-2{fill:#ffe67b;}</style></defs><title>gram</title><g id="Layer_7" data-name="Layer 7"><circle class="cls-1" cx="36.06" cy="35.77" r="35.51"/><path class="cls-2" d="M54.29,34.41c0-3.54,0-7.09,0-10.64,0-5-2.71-7.71-7.61-7.74Q35.9,16,25.11,16c-4.81,0-7.56,2.71-7.59,7.46q-.07,10.94,0,21.86c0,4.61,2.76,7.4,7.3,7.44q11.09.1,22.16,0c4.54,0,7.24-2.83,7.3-7.45C54.33,41.7,54.29,38.05,54.29,34.41Zm-7.2-14.26c2.83-.28,3.43.91,2.93,3.34.7,2.7-.58,3.11-3.08,3.21-2.95.13-3.14-1.11-3.33-3.54C43.37,20.05,45,20.36,47.09,20.15Zm-11,7.8a6.47,6.47,0,1,1-6.63,6.46A6.61,6.61,0,0,1,36.06,28Zm14.6,17.81c-.06,2.39-1.59,3.46-3.91,3.46H35.81c-3.44,0-6.89,0-10.34,0-3.15,0-4.32-1.15-4.36-4.2,0-4.14,0-8.28,0-12.41-.06-3.39,2.44-1.61,3.8-1.86,2-.37,1.2,1,1.07,2a9.72,9.72,0,0,0,4.59,10.13,9.31,9.31,0,0,0,10.83-.1,9.7,9.7,0,0,0,4.43-10.2c-.15-1-.75-2.19,1-1.85,1.34.27,3.75-1.48,3.87,1.43C50.83,36.7,50.77,41.23,50.66,45.76Z"/></g></svg>