<svg xmlns="http://www.w3.org/2000/svg" viewBox="0 0 1024 768"><defs><style>.cls-1{fill:#f7a73c;}.cls-2{fill:#ffe67b;}</style></defs><title>gram</title><g id="Layer_7" data-name="Layer 7"><circle class="cls-1" cx="783.79" cy="391.55" r="37.8"/><path class="cls-2" d="M803.21,390.11c0-3.78,0-7.55,0-11.33-.05-5.3-2.88-8.21-8.1-8.24q-11.49-.06-23,0c-5.12,0-8,2.89-8.07,7.94q-.09,11.64,0,23.27c0,4.91,2.93,7.89,7.77,7.93q11.79.09,23.59,0c4.83-.05,7.7-3,7.77-7.94C803.25,397.87,803.2,394,803.21,390.11Zm-7.68-15.19c3-.3,3.66,1,3.13,3.56.74,2.88-.63,3.31-3.28,3.42-3.15.13-3.35-1.19-3.55-3.78C791.58,374.82,793.31,375.15,795.53,374.92Zm-11.74,8.31a6.89,6.89,0,1,1-7.06,6.88A7,7,0,0,1,783.79,383.23Zm15.54,19c-.06,2.54-1.68,3.68-4.16,3.68H783.53c-3.67,0-7.34,0-11,0-3.35,0-4.61-1.23-4.64-4.47,0-4.41,0-8.81,0-13.21-.06-3.61,2.6-1.71,4-2,2.11-.4,1.28,1.08,1.14,2.15a10.37,10.37,0,0,0,4.89,10.79,9.91,9.91,0,0,0,11.53-.11,10.34,10.34,0,0,0,4.71-10.86c-.16-1-.8-2.34,1-2,1.42.29,4-1.57,4.11,1.53C799.52,392.54,799.45,397.37,799.33,402.19Z"/></g></svg>