<svg xmlns="http://www.w3.org/2000/svg" viewBox="0 0 335 376"><defs><style>.cls-1{fill:#f7a73c;}.cls-1,.cls-7{stroke:#ffe67b;stroke-miterlimit:10;}.cls-2{opacity:0.75;}.cls-3{fill:#f8d0c6;}.cls-4{fill:#ea7657;}.cls-5{fill:#f4b6a6;}.cls-6{fill:#ef9881;}.cls-7{fill:none;}</style></defs><title>jacksoncarton</title><g id="Layer_4" data-name="Layer 4"><polyline class="cls-1" points="246.66 58.99 310.15 126.36 302.38 257.23 180.58 360.89 35.46 298.69 35.46 160.05 34.82 159.41 93.77 104.34 93.77 77.13 222.05 20.12 249.26 31.78 246.66 58.99"/><g class="cls-2"><path class="cls-3" d="M277.2,157.19c-.32-1.05-.7-2.22-1.51-1.69a4.28,4.28,0,0,0-1.35,2.89,3.31,3.31,0,0,0,.83,3c.67.75,1.88.71,1.78,2.68-.1,2.18-1.36,1.69-2.09,2.48-1.39,1.5-2.45,3-2.23,6.65.18,2.84-.15,5.93-.25,8.92,2.36-.28,3.92-3.06,5.13-6.93.3-4-.1-8.15,1.3-11.93a.69.69,0,0,1,.14-.6c-.09-.94-.18-1.87-.28-2.8C277.8,159.79,277.56,158.39,277.2,157.19Z"/><path class="cls-4" d="M281.36,173.26c0-.7-.09-1.39-.13-2.07"/><path class="cls-3" d="M280.26,147.49A9.5,9.5,0,0,0,279,148c-.15.15-.29.34-.43.51a40.31,40.31,0,0,0,.59,6.65A35.14,35.14,0,0,0,280.26,147.49Z"/><path class="cls-5" d="M228.06,184.45c-.49,1.51-.92,3.08-1.39,4.62.86-.67,1.74-1.33,2.63-2A6.06,6.06,0,0,0,228.06,184.45Z"/><path class="cls-5" d="M289.19,218.21c-.46-.56-.23-2.94.06-4.59-.05-.91-.11-1.82-.16-2.74l-.8-.73a17.62,17.62,0,0,0-1.12,1.72c-.94,1.79-1.61,4.9-3.07,4.34s-1.66-3.61-1.61-6.19c.07-4.38-1.87-6.73-1.69-11.1-.34-2.62-1.57-2.93-2.66-3-1.9-.17-2.33-2.14-1.92-5.59h-1.47c-.83.58-1.72,5.07-2.24,2.07-.48-2.78-3.15-6-.13-10.25.1-3,.43-6.08.25-8.92-.22-3.63.84-5.15,2.23-6.65.73-.79,2-.3,2.09-2.48.1-2-1.11-1.93-1.78-2.68a3.31,3.31,0,0,1-.83-3,4.28,4.28,0,0,1,1.35-2.89c.81-.53,1.19.64,1.51,1.69s.6,2.6,1.48,2.67a15.11,15.11,0,0,0,.48-4.7,40.31,40.31,0,0,1-.59-6.65c-1.73,2.11-2.8,5.64-5.57,7.49a26.7,26.7,0,0,0-4.05,1.74c-1.29,1-2.59,2-3.87,3.13L265,161c-.47.47-.95.91-1.43,1.37a21.73,21.73,0,0,0-1.47,1.81,10.22,10.22,0,0,0-2.35,6.63,16.35,16.35,0,0,1-1.12,6.12,14,14,0,0,0-.54,7.34c1.58,10.65-.86,20.8-3.21,31.55-2,9.3-7,11.75-10.21,18.43-2.12,4.35-5.69,4.33-8.63,4.5-1.92.12-2.3-2.5-1.17-5.74,1.88-5.4,4.31-6.79,7-5,1,.66,1.88,1,2.55-1.5s.2-3.86-1-4.58a11.09,11.09,0,0,0-4.77-1.49c-1-.09-2.16-.64-2.14-2.77a3.51,3.51,0,0,1,2.36-3.56c2-.92,3.66-3.36,5.47-5a6,6,0,0,0,2-4.81c-.9,0-2.24,2.5-2.53-.79l-2.16.89c-1.52,1.59-3.19,1.51-4.74,2.62-1,.7-4-1-2.37,4.49a9.11,9.11,0,0,1-1,1.73c-.08.13-.23.12-.35.15-2.4.66-7.52-4.51-6.88-7.43,1.08-5,4.17-5.38,6-5.37,5.87,0,11.21-5.21,16.59-7.11-1.51-5.17-1.73-11.47-3-16.9Q241,180,236,183a46,46,0,0,0-4.52,2.61l.27.24c.69.52,1.69.3,1.74,2.17a2.54,2.54,0,0,1-1.09,2.37c-1,.63-1.92.36-2.47-1.15-.24-.67-.42-1.42-.63-2.15-.89.65-1.77,1.31-2.63,2a39.05,39.05,0,0,1-1.69,4.72c-1.37,3-3.26,6.42-5.46,3.85-.49-.58-.3-2.88-.52-3.64-2.33,1.77-6.25,1.54-9,3,.25,1.25,1.32,6.08,1.35,7.5.89,1.22.9,3.1.87,5,1.25.76,1.4,2.91,1.85,4.68,2.34,1.4,3.75,4.63,5,7.7,2.18,5.2,4.88,8.85,8.43,10.73a4.35,4.35,0,0,1,2.52,2.51c3.87,10.3,9.88,10.75,16.31,1.28a25.22,25.22,0,0,1,5.78-6.19c6.66-5.07,11-15.39,12-27.91a15.86,15.86,0,0,1,.23-2.31c.65-3,.81-7.31,3.2-7,2.23.32,1.69,4.15,1.65,7.38-.17,11.14-3.52,18.86-8.22,26.78a88.32,88.32,0,0,0-8,16.94c-2,5.84-5.39,6.82-8.29,8.32-4.35,2.24-7.77,9.21-12.17,11.83-1.07.64-1.27,2.85-1.49,4.59a11.6,11.6,0,0,1,1.56,5.28c.46.07,1,.22.66,1.38-.1.4-.61.64-.93,1l-.13.16c-.06,2.05.32,3.1,1.5,3.53,2.1.76,3.82,2.62,4.62,6.28,1.26-3.43,2.61-1.54,3.91-2.31-2.35-6.45-2.19-7.3,2.6-14.75,3.51-5.48,6.64-11.63,10.4-16.07,1.91-2.25,4.08-3.05,5.69-7.05,1.16-2.88,3.23-4.49,3.17-8.82a3.13,3.13,0,0,1,1.5-2.89c.83-.35,1.23.43,1.47,1.73.48,2.6.68,5.78,2.71,5.3,3.93-3.25,3.93-3.25,3.8-11.55-1,.25-1.92.11-2.25-1.87-1.57-9.56-1.22-19.86.05-30.5,1.08,4.8,1.86,9.77,3.07,14.22,1.58-1.78,3.12-4.88,4.73-2,2.54,4.47,1.46,10.82.66,17.05l-1.59,4c-1.83,3.64-3.68,7.14-3.59,12.63a13.22,13.22,0,0,1-1.57,5.78c-2.71,4-3.92,11.14-7.71,14,1.15,1.35,2.65-.58,3.24,1.28l2-3.53a11.88,11.88,0,0,1,2.13-3.75c6.24-8.36,11.88-17.26,15.65-29.94C289.31,224.25,291.83,221.42,289.19,218.21Zm-65.89,3.4c-1.8,1.29-2.28-1.17-2.58-3.44a10.29,10.29,0,0,0-1.25-4.18,5.14,5.14,0,0,1-.31-5.55c1.29-2.29,2.6-1.34,3.72-.1a8,8,0,0,1,2.23,5.58C225,217.71,224.92,220.46,223.3,221.61Zm54.38-15.93c-1.19.72-2.17-.12-3-1.28a8.17,8.17,0,0,1-.89-5.2c.07-.85.48-1.14,1.05-1,1.63.73,2.35,3.74,3.29,6.25A2.73,2.73,0,0,1,277.68,205.68Z"/><path class="cls-5" d="M265.08,160.87c-.51.46-1,.95-1.51,1.5.48-.46,1-.9,1.43-1.37Z"/><path class="cls-6" d="M267.55,193c-2.39-.35-2.55,3.93-3.2,7a15.86,15.86,0,0,0-.23,2.31c-1,12.52-5.32,22.84-12,27.91a25.22,25.22,0,0,0-5.78,6.19c-6.43,9.47-12.44,9-16.31-1.28a4.35,4.35,0,0,0-2.52-2.51c-3.55-1.88-6.25-5.53-8.43-10.73-1.28-3.07-2.69-6.3-5-7.7-.93,1.89-1.86,1.34-2.79.88l5.3,8.42c1.84,2.65,3,6.21,4.13,9.74,1.32.18,1.81,1.81,2.17,3.68,2.72,3.24,1,8.18,0,12.88,2.75,4.44-.64,5.69-2.27,7.87-.67,6.92-.68,13.26,2.76,16.41l2.32-1.09.33-.68c-1.13-3.51-1.37-7.05,1.47-10.65.24-2.61-1-3-1.71-4.25a4,4,0,0,1,.12-4.34c.85-1.15,1.71-.34,2,.93a46,46,0,0,1,1.4,7.62c.18,2.38-.71,1.48-1.26,1.11-1,1.53-1,2.8,0,3.27s1.67,2.09,2.38,3.38a1.91,1.91,0,0,0,.61-.49c.22-1.74.42-3.95,1.49-4.59,4.4-2.62,7.82-9.59,12.17-11.83,2.9-1.5,6.32-2.48,8.29-8.32a88.32,88.32,0,0,1,8-16.94c4.7-7.92,8-15.64,8.22-26.78C269.24,197.18,269.78,193.35,267.55,193Z"/><path class="cls-6" d="M269.72,241.6c3.93-3.25,3.93-3.25,3.8-11.55q.56-3.68,1.09-7.34c.82,1.48.43,5.46,2.4,4.52.39,1.24.78,2.48,1.18,3.72-1.83,3.64-3.68,7.14-3.59,12.63a13.22,13.22,0,0,1-1.57,5.78c-2.71,4-3.92,11.14-7.71,14,1.15,1.35,2.65-.58,3.24,1.28-1.37,5.48-4.42,7.5-6.34,12-.56-.93-1.08-.75-1.73.81-1.24,3-2.51,2.88-3.74,1.79l-.13-3.36c1.43-6.22,2.37-12.91,6.07-16.51.46,2,1.3,2.29,2.39.61.57-.88,1.46-1.68,1.51-3.16s-.84-.87-1.34-1.08c.28-.88.5-2.28.84-2.56C269,250.74,269.39,246.21,269.72,241.6Z"/><path class="cls-6" d="M232.15,276.65c-.06,2.05.32,3.1,1.5,3.53,2.1.76,3.82,2.62,4.62,6.27-.05.92-.56,3.05-.07,2.53,1.52-1.59,3.17-.89,4.53-3.45l.86-.66c-.84,7.36,1.1,7,4.13,3.91a10.16,10.16,0,0,1,2.61-1.59c-4.16,10.59-14.83,16.52-17.6,2.76a2.06,2.06,0,0,0,.92-1.88c-.09-1.13-.66-1.22-1.25-1.15l0-.06-.46,0c-1.48,0-2.36-1.55-3.27-3.05A23,23,0,0,1,232.15,276.65Z"/><path class="cls-5" d="M250.33,287.19a10.16,10.16,0,0,0-2.61,1.59c-3,3.08-5,3.45-4.13-3.91,2.32-.23,4.46-.51,6.88-3.91,1.81-2.56,4.1-3.45,6.15-5.06,0,1.12.09,2.24.14,3.36a16.56,16.56,0,0,0-2.11,5.27c-.81,1.39-1.59,2.93-2.66,3-.31-1.13.84-3.54-.17-3.76-.52-.12-.74,1.89-1,3A2.43,2.43,0,0,0,250.33,287.19Z"/><path class="cls-5" d="M228,262.71c-1,1.53-1,2.8,0,3.27s1.67,2.09,2.38,3.38c-.55,4.42-2.77,7.83-3.8,12-1.71-1.45-2.62-4.16-3.26-7.32l2.32-1.08c.24.49.49,1.6.94.64s-.22-1.14-.61-1.32c-1.13-3.51-1.37-7.05,1.47-10.65Z"/><path class="cls-4" d="M226.58,281.37c1-4.18,3.25-7.59,3.8-12a1.91,1.91,0,0,0,.61-.49,11.6,11.6,0,0,1,1.56,5.28l-.27,2.34-.13.16a23,23,0,0,0-3.46,7.19C227.08,285.08,226.64,283.65,226.58,281.37Z"/><path class="cls-4" d="M254.65,284.53a16.56,16.56,0,0,1,2.11-5.27c1.22,1.09,2.49,1.17,3.73-1.79.65-1.56,1.17-1.74,1.73-.81C260.24,282.53,257.44,283.34,254.65,284.53Z"/><path class="cls-5" d="M222.83,249.78c2.75,4.44-.64,5.69-2.27,7.87C220,254.34,221.62,252.16,222.83,249.78Z"/><path class="cls-4" d="M220.71,233.22c1.32.18,1.81,1.81,2.17,3.68C221.13,237.48,220.65,235.83,220.71,233.22Z"/><path class="cls-6" d="M250.77,286.73c.31-1.1.53-3.11,1-3,1,.22-.14,2.63.17,3.76Z"/><path class="cls-5" d="M232.4,286.92c.59-.07,1.16,0,1.25,1.15a2.06,2.06,0,0,1-.92,1.88Z"/><polygon class="cls-6" points="225.62 288.63 225.45 288.57 225.53 288.23 225.71 288.29 225.62 288.63"/><path class="cls-5" d="M232,286.89l.46,0A.73.73,0,0,1,232,286.89Z"/><path class="cls-6" d="M229.93,189.24c.55,1.51,1.43,1.78,2.47,1.15a2.54,2.54,0,0,0,1.09-2.37c-.05-1.87-1.05-1.65-1.74-2.17l-.27-.24c-.74.48-1.47,1-2.18,1.48C229.51,187.82,229.69,188.57,229.93,189.24Z"/><path class="cls-3" d="M287.66,208.45a5,5,0,0,1-1.8,0c-.77-.27-1.42-1.12-1.66-2.66l-.62-4.54-2.78-2.33c-.18,4.37,1.76,6.72,1.69,11.1-.05,2.58.13,5.62,1.61,6.19s2.13-2.55,3.07-4.34a19.11,19.11,0,0,1,1.12-1.73Z"/><path class="cls-5" d="M287.66,208.45a5,5,0,0,1-1.8,0c-.77-.27-1.42-1.12-1.66-2.66"/><path class="cls-3" d="M249,193.51l2,.4c.74-.06,1.59-.21,1.84,1.18.34,1.9-.73,2.14-1.33,2.84-1.66,1.94-2.7,6-5,6.06l-.14.34a6,6,0,0,1-2,4.81c-1.81,1.63-3.45,4.07-5.47,5a3.51,3.51,0,0,0-2.36,3.56c0,2.13,1.16,2.68,2.14,2.77a11.09,11.09,0,0,1,4.77,1.49c1.18.72,1.65,2.12,1,4.58s-1.57,2.16-2.55,1.5c-2.66-1.81-5.09-.42-7,5-1.13,3.24-.75,5.86,1.17,5.74,2.94-.17,6.51-.15,8.63-4.5,3.25-6.68,8.18-9.13,10.21-18.43,2.35-10.75,4.79-20.9,3.21-31.55a14,14,0,0,1,.54-7.34,16.35,16.35,0,0,0,1.12-6.12,10.22,10.22,0,0,1,2.35-6.63,21.73,21.73,0,0,1,1.47-1.81A135.17,135.17,0,0,1,246,176.61C247.25,182,247.47,188.34,249,193.51Z"/><path class="cls-3" d="M265.08,160.87c1.28-1.17,2.58-2.12,3.87-3.13A9.8,9.8,0,0,0,265.08,160.87Z"/><path class="cls-3" d="M256.62,275.9c-2.05,1.61-4.34,2.5-6.15,5.06-2.42,3.4-4.56,3.68-6.88,3.91l-.86.66-.55-1.38c-2.35-6.45-2.19-7.3,2.6-14.75,3.51-5.48,6.64-11.63,10.4-16.07,1.91-2.25,4.08-3.05,5.69-7.05,1.16-2.88,3.23-4.49,3.17-8.82a3.13,3.13,0,0,1,1.5-2.89c.83-.35,1.23.43,1.47,1.73.48,2.6.68,5.78,2.71,5.3-.33,4.61-.68,9.14-3.63,11.6-.34.28-.56,1.68-.84,2.56-.77,1.45-2.37.2-2.56,3.63C259,263,258.05,269.68,256.62,275.9Z"/><path class="cls-6" d="M232.39,200.62c-1.83,0-4.92.37-6,5.37-.64,2.92,4.48,8.09,6.88,7.43.12,0,.27,0,.35-.15a9.11,9.11,0,0,0,1-1.73c-1.67-5.44,1.4-3.79,2.37-4.49,1.55-1.11,3.22-1,4.74-2.62,1.48-4.28,3.72-4.65,5.86-5.41,1.61-.57,2.66-2.5,3.43-5.11l-2-.4C243.6,195.41,238.26,200.64,232.39,200.62Z"/><path class="cls-3" d="M274.39,211.9c-1.21-4.45-2-9.42-3.07-14.22-1.27,10.64-1.62,20.94-.05,30.5.33,2,1.25,2.12,2.25,1.87q.56-3.68,1.09-7.34c-.14-2.86-.29-5.72-.43-8.58Z"/><path class="cls-3" d="M219.52,197.64c2.2,2.57,4.09-.85,5.46-3.85a39.05,39.05,0,0,0,1.69-4.72c-2.77,2.15-5.41,4.41-8.21,6.54A5.48,5.48,0,0,0,219.52,197.64Z"/><path class="cls-3" d="M225.11,213.92c-.15,3.79-.19,6.54-1.81,7.69-1.8,1.29-2.28-1.17-2.58-3.44a10.29,10.29,0,0,0-1.25-4.18,5.14,5.14,0,0,1-.31-5.55c1.29-2.29,2.6-1.34,3.72-.1A8,8,0,0,1,225.11,213.92Z"/><path class="cls-6" d="M274.85,198.18c-.57-.12-1,.17-1.05,1a8.17,8.17,0,0,0,.89,5.2c.82,1.16,1.8,2,3,1.28a2.73,2.73,0,0,0,.46-1.25C277.2,201.92,276.48,198.91,274.85,198.18Z"/><path class="cls-6" d="M279.12,209.93c2.54,4.46,1.46,10.81.66,17,0-1,0-2.09,0-3.13,0-.49,0-1,0-1.48a2.64,2.64,0,0,0-.55-2l0-10.41Z"/><path class="cls-4" d="M242.18,284.15l.55,1.38c-1.36,2.56-3,1.86-4.53,3.45-.49.52,0-1.61.07-2.53C239.53,283,240.88,284.92,242.18,284.15Z"/><path class="cls-6" d="M274.18,214.13l.21-2.23c1.58-1.78,3.12-4.88,4.73-2V210c-.76,0-1.42.58-1.92,2C276.32,214.06,275.21,213.62,274.18,214.13Z"/><path class="cls-4" d="M241.69,204.43l2.16-.89a1.8,1.8,0,0,1,2.07-.72c.55-1.27,1.09-2.54,1.63-3.8C245.41,199.78,243.17,200.15,241.69,204.43Z"/><path class="cls-3" d="M279.73,223.84c0,1,0,2.09,0,3.13l-1.59,4c-.4-1.24-.79-2.48-1.18-3.72a3.73,3.73,0,0,1,.87-2.28C278.59,226.36,279.1,223.84,279.73,223.84Z"/><path class="cls-6" d="M243.85,203.54a1.8,1.8,0,0,1,2.07-.72l.6,1.17-.14.34C245.48,204.36,244.14,206.83,243.85,203.54Z"/><path class="cls-6" d="M232.28,276.49l.27-2.34c.46.07,1,.22.66,1.38C233.11,275.93,232.6,276.17,232.28,276.49Z"/><path class="cls-4" d="M228,262.71l-.57-1.07c.24-2.61-1-3-1.71-4.25a4,4,0,0,1,.12-4.34c.85-1.15,1.71-.34,2,.93a46,46,0,0,1,1.4,7.62C229.45,264,228.56,263.08,228,262.71Z"/><path class="cls-4" d="M277.88,225a3.73,3.73,0,0,0-.87,2.28c-2,.94-1.58-3-2.4-4.52l-.43-8.58c1-.51,2.14-.07,3-2.14C277.66,216.17,277.14,220.94,277.88,225Z"/><path class="cls-5" d="M262.69,259.39c.19-3.43,1.79-2.18,2.56-3.63.5.21,1.38-.4,1.34,1.08s-.94,2.28-1.51,3.16C264,261.68,263.15,261.39,262.69,259.39Z"/><path class="cls-6" d="M226,272.29c.39.18,1.06.36.61,1.32s-.7-.15-.94-.64Z"/><path class="cls-5" d="M251,193.91c-.77,2.61-1.82,4.54-3.43,5.11-.54,1.26-1.08,2.53-1.63,3.8l.6,1.17c2.27-.05,3.31-4.12,5-6.06.6-.7,1.67-.94,1.33-2.84C252.57,193.7,251.72,193.85,251,193.91Z"/><path class="cls-5" d="M277.88,225c-.74-4-.22-8.78-.69-13,.5-1.44,1.16-2,1.92-2l0,10.41c.19.66.37,1.32.55,2,0,.49,0,1,0,1.48C279.1,223.84,278.59,226.36,277.88,225Z"/><path class="cls-3" d="M279.69,222.36c-.18-.66-.36-1.32-.55-2A2.64,2.64,0,0,1,279.69,222.36Z"/><path class="cls-6" d="M209.6,112c.21.58.42,1.15.64,1.73-.76,3.37-5.68,4.19-9.37,5.86l-2.33.47c-2.28-.76-3.71.08-5.52.23-1.34.11-3.12.52-4.15-.19-6.1-4.27-8.89-.82-12.38.18-1.41.41-2.06,1.4-3.83.23s-.09-1.62,1.1-2c.73-.26,1.48-.5,2.22-.75,2.35-.91,5.46-1.2,6.93-2.74l6.49-.49c-.27,3.34,1.06,4,6.3,3.86,4.71-.16,7.88-1.14,8.51-4-.83-2.81-3.55-4.57-8.09-5.25"/><path class="cls-6" d="M250,143.91l3.67,2.84c3.11.75,6.37.91,9,2.84l6,2.71,2.07,1.12,4.3,3.41c2.75.2,3.59-.53,2.05-2.57a8.2,8.2,0,0,1-1.72-6.83c.15-.7-.23-2.15,2.11-1.18l.72-.27-1.92-2.35-.12.05a3.47,3.47,0,0,1-2.51-.72l-1-1.11-2.11-.8c-2.13.42-5.51-2.61-7.09-.19a10.48,10.48,0,0,1-2.4-1.62c-2.75-2.27-5.59-5.26-9.23-2.33a1.47,1.47,0,0,1-.81.15c-1.8,0-5.09-2.22-5.25-.33a6.78,6.78,0,0,0,3.3,6.28A7.13,7.13,0,0,1,250,143.91Z"/><path class="cls-6" d="M220.9,115.44l1.67-.08,1,.07,2.82.83c.9,1.08-2.7,2.92,2.62,3.24-.16,1.55-2.59.79-4,1.08-2.18-1.36-4.56-2.31-7-1.77-1.82.41-1.22,1.58-.3,2.73-1.36.4-3.37.47-2.26,2.14l-1.33.94L211.71,123c.14-.37.47-1,.39-1.06-7.32-2.89-1.62-3.23.1-4.41C214.41,116,218.61,116.73,220.9,115.44Z"/><path class="cls-4" d="M220.9,115.44c-2.29,1.29-6.49.6-8.7,2.1-1.72,1.18-7.42,1.52-.1,4.41.08,0-.25.69-.39,1.06a21.12,21.12,0,0,1-10.84-3.38c3.69-1.67,8.61-2.49,9.37-5.86C213.89,115,217.34,114.46,220.9,115.44Z"/><path class="cls-6" d="M259.92,131.42c1.12.58,1.9,1.27,2,2.15-1,.53.21,1.55,0,2.27-4.71-1.83-4.67-1.83-6.26-5.39-.78-1.74-4.88-3.79-1.18-5l.25-.12.3-.05c1.09.69,2.43,1.28,2.58,2.33-.18.28-.36.56-.53.84-.25,1.24.37,2.25,2.59,2.8Z"/><path class="cls-3" d="M229,119.5c-5.32-.32-1.72-2.16-2.62-3.24,2.6-.39,5.82,1.26,8.27.59.83.9,2.49,1.73,1.86,2.78Z"/><path class="cls-4" d="M236.55,119.63c.63-1-1-1.88-1.86-2.78a9.93,9.93,0,0,1,6.46,2.27,12,12,0,0,0,4.06,2.09l.42.65C242.52,122.16,239.41,122.08,236.55,119.63Z"/><path class="cls-3" d="M283.46,150a14,14,0,0,0-3.27-3c-.6-.4-1-1.08-2-1.06l-.72.27c1.41,1.57,2.65,3.21,4.08,4.77a3.33,3.33,0,0,1,.36-.4C282.43,150.39,282.94,150.18,283.46,150Z"/><path class="cls-4" d="M259.66,131.21c-2.22-.55-2.84-1.56-2.59-2.8A6.75,6.75,0,0,1,259.66,131.21Z"/><path class="cls-4" d="M223.6,115.43l-1-.07C222.62,114.48,223.14,115.06,223.6,115.43Z"/><path class="cls-5" d="M281.59,151c-1.43-1.56-2.67-3.2-4.08-4.77-2.34-1-2,.48-2.11,1.18a8.2,8.2,0,0,0,1.72,6.83c1.54,2,.7,2.77-2.05,2.57a27.16,27.16,0,0,1-2.49,1.9,50.67,50.67,0,0,1,4.8-2.07C280.35,154.88,280.19,152.65,281.59,151Z"/><path class="cls-5" d="M218.1,189c.83-3.3,2.06-6.57,7.46-7.54-2-4.08-3.67-8.21-7.08-12a3.32,3.32,0,0,0-1.74-1c-1.86-.13-.47.7-.36,1.15.25,1-.49,1-1.54.58a7.81,7.81,0,0,0-4.27-.83c3.13,3,1.31,4.42-2.78,5.12-.5,1.49,1.64,1.06,2.92,1.73-3.47.79-5.94,3.19-10.29,1.66-2.63-.93-3.08-3.05-2-4.51s1.84-3.78,6.1-2.64l1.63-1c-.45-2.08-1.77-3.18-5-2.17-4.27,1.35-9.82,1.92-8.77,6.62.3,1.33-1.26,2.56-3.22,3.26l3.71,5.11c3.24,2.77,8.09,5.18,5.91,9.14l4.75,1.61c2.62,1.87,6,3.16,8.66,4.94a70.77,70.77,0,0,0,8.16-4.78A3.9,3.9,0,0,1,218.1,189Z"/><path class="cls-5" d="M249.58,175.43c-.69-.41-1.39-.81-2.14-1.18-3.11,1.27-6.46,2-10.5.15-1-.47-2.2-1.2-1.95-2.14s1.75-.78,2.92-.61c2.22.33,4.43.76,6.62,1.14-1.14-1.7-.53-2.73,2.07-2.27,6.26,1.11,9.48-1.29,11.08-4.17,2.32-4.21,6.13-8.12,2.65-13.75-1.1-1.79.73-2.43,2.37-3-2.67-1.93-5.93-2.09-9-2.84-3,2.52-6.91,3.9-12.7,3.69a13.41,13.41,0,0,0-8.18,2.37c1.21.62,2.65-.13,3.91.9-.79,1.43-2.66,2.1-4.59,2.71-1.11.36-2.43.91-3.75.05s.29-1.61.21-2.47c-6.16,1.92-6.45,2.53-3.74,6.88.7,1.13,1.43,2.46-.28,3.18a5.65,5.65,0,0,1-5-.7c-3.71-2.47-7-2-10.47-1a12.09,12.09,0,0,0,5.59,2.86c8.48,1.69,15.38,8.89,13.89,14.44-.73,2.72,1,4.31,5.19,4.75,1.54-.91,3.19-1.8,5-2.68C242.45,179.67,246.07,177.59,249.58,175.43Zm-9.51-18.34,4.55-1.21a9.38,9.38,0,0,1,1.85-.73,6.55,6.55,0,0,1,5.4,1c1.51,1.26-.13,2.15-.64,3.15-.26.28-.41.22-.47-.14a3.84,3.84,0,0,0-4-1.75c.59,1.36.58,2.56-1.53,2.84s-3.46-.78-4.71-1.93l-4.83,1.37C235.9,157.43,238.15,157.37,240.07,157.09Zm-3.49,24.7a3.1,3.1,0,0,1-3.64-.65c-1-1.11-.29-1.82,1-2.35,1.22-.37,2.59-.56,3.55.62C238.35,180.44,237.83,181.29,236.58,181.79Z"/><path class="cls-3" d="M164.72,128.75l-2.77,1"/><path class="cls-4" d="M217.73,121.54c-.92-1.15-1.52-2.32.3-2.73,2.44-.54,4.82.41,7,1.77.08.43.16.86.23,1.29-2.8.52-1.66,2-.19,3.31,3,2.63,5.26,1.29,7.62.75h1.89c2.45.8,2.41,3.39,5.21,3.59,3.34.24,4.39,1.88,5.86,3.4l-1.27.9c-3.31-1.71-5,.3-7.65.28-6.39,0-13.9-1.36-19.15,1.13-3.31,1.58-6.24,3.25-10.47,4.37-3.19.84-5.17,2.51-9.88,1.74-3.93-.65-7.66.29-9.68,2s2.72,3.14,3.58,4.87c.05.11.25.21.37.32-1.94,1.76-5.51,2-8.46,3-.38-1,.61-1.49,1.14-2.17.67-.87,1.93-1.88.6-2.88-1.55-1.16-3,.14-4.69,0-3.46-3.92-3.56-4-7.87-1.29-2.47,1.55-4.76.88-7.29-.68.12-1.93.25-3.85.37-5.75-.55-1.39-5.5-2.53-2-4.13,2.45,2.73,7.14,2.27,10.4,3.68,7,3,15.68,2.48,18.74-1.21,1.31-1.57,4.7-1.29,6.38.73,1.56,1.87,2.8,1.52,3.28.4,1.09-2.54,4.75-3.28,7.62-4.34,3.11-1.15,3.45-1.82-.56-3.33-1-.38-1.95-.87-2.93-1.32-1-3.2-7.57-3-9.19-5.81-.32,0-.66,0-1,.09-4.17.74-5.43,5-2.33,8.1-4.59,3-5.64,2.91-9-1a4.37,4.37,0,0,1,.5-.09c4.88-.06,4.66-2.19,3.3-4.52-.92-1.57-3.29-1.56-4.82-1.18-3.85,1-2.23,2.87.17,4.81a7.09,7.09,0,0,1,.91,1c-4.41-1-7.36-1.08-7.9,2.26-.26,1.67-3.3,2.71-6.12-.26l1.32-.37-.53-.34-.78.72-7.25,1.54c-.22-.54-.44-1.07-.67-1.6,1.81-.36,4.09-.41,3.91-2l.19-.24c1.39-.52,1.7-1.37,1.3-2.43,0-.11,0-.17,0-.29,3-1.6-.93-3.83-.81-5.68.59-.61,1.95-1,1.12-2-.69-.86-3.89-2-.83-2.41,2.47-.33,4.77-2.18,8.26.27-.74.26-1.49.5-2.22.76-1.19.42-2.8.91-1.1,2s2.42.18,3.83-.23c3.49-1,6.28-4.45,12.38-.18,1,.71,2.81.3,4.15.19,1.81-.15,3.24-1,5.52-.23l-.43.83c-.51.34-.32.55.54.63a7,7,0,0,0,3.36,1.86c4.3,1.09,8.17.94,12.13,1.2l1.33-.94a5.46,5.46,0,0,1,3.33-.79c1.07.14,2.33.16,1.66-.8S218.67,121.61,217.73,121.54Z"/><path class="cls-6" d="M162,129.79l4.77.76c.18,1.64-2.1,1.69-3.91,2a9.4,9.4,0,0,0-4.25-.58"/><path class="cls-6" d="M228.54,179.63c1.49-5.55-5.41-12.75-13.89-14.44a12.09,12.09,0,0,1-5.59-2.86l-1.78.21c-6.45,1.81-13.08,3.64-18.43,6.92-1.5.92-2.21.06-3.06-.9-3.38-3.79-6.9-7.54-10.38-11.31-4.08,1.17-1.83,3.37-.63,5.27,1,1.62,2,3-1,3.81.5,3.38,5.66,5.57,7.1,8.7.53,1.16,3.43,2.62.86,3.44l15.26,12,1.81,1.23c2.18-4-2.67-6.37-5.91-9.14-2.63-1.23-5.15-2.55-6.28-4.61-.29-.54-1.3-1.4.48-1.39a6.84,6.84,0,0,1,2.09.89c2-.7,3.52-1.93,3.22-3.26-1-4.7,4.5-5.27,8.77-6.62,3.19-1,4.51.09,5,2.17l4.45-.41a7.81,7.81,0,0,1,4.27.83c1,.45,1.79.38,1.54-.58-.11-.45-1.5-1.28.36-1.15a3.32,3.32,0,0,1,1.74,1c3.41,3.82,5,8,7.08,12,1,1.09,1.93,2.18,2.89,3.28a8.59,8.59,0,0,1,3,1.09c.75-.47,1.53-.94,2.33-1.41C229.55,183.94,227.81,182.35,228.54,179.63Z"/><path class="cls-6" d="M167.43,121.91c-.12,1.85,3.78,4.08.81,5.68"/><path class="cls-4" d="M196.12,109.09c4.54.68,7.26,2.44,8.09,5.25l-3.43.64c-1.82-1.48-2.75-4-6.75-3"/><path class="cls-5" d="M200.78,115l3.43-.64c-.63,2.91-3.8,3.89-8.51,4-5.24.18-6.57-.52-6.3-3.86l5.23-.3C196.74,114.8,198.87,115.57,200.78,115Z"/><path class="cls-5" d="M198.11,120.93l.43-.83,2.33-.47A21.12,21.12,0,0,0,211.71,123l2.43,1.61c-4-.26-7.83-.11-12.13-1.2a7,7,0,0,1-3.36-1.86A3.12,3.12,0,0,0,198.11,120.93Z"/><path class="cls-3" d="M270.77,153.42a1.87,1.87,0,0,1-2.08-1.12l-6-2.71c-1.64.58-3.47,1.22-2.37,3,3.48,5.63-.33,9.54-2.65,13.75-1.6,2.88-4.82,5.28-11.08,4.17-2.6-.46-3.21.57-2.07,2.27l2.91,1.46c.74.37,1.45.77,2.14,1.18a136.44,136.44,0,0,0,17.72-12.67,16.26,16.26,0,0,1,1.38-1.24c.35-.78,1.93-1.8,3.9-2.79a27.16,27.16,0,0,0,2.49-1.9Z"/><path class="cls-3" d="M209.06,162.33c3.45-1,6.76-1.44,10.47,1a5.65,5.65,0,0,0,5,.7c1.71-.72,1-2.05.28-3.18-2.71-4.35-2.42-5,3.74-6.88l4.23-1.19a13.36,13.36,0,0,1,8.17-2.37c5.79.21,9.71-1.17,12.69-3.69L250,143.91c-4.42-.33-6.3-2.46-6.65-4.92-.22-1.63-1.44-2.46-3.31-3.31-2,.67-4.68,0-7,.13-1,3.59-5.41,5.75-6.64,9.41-.46,1.39-2.89,2.16-5.24,2.28-9,.47-13.06,5.36-19.44,8.44-3.38,1.64-1,4.05,5.55,6.6Z"/><path class="cls-5" d="M250,143.91c-4.42-.33-6.3-2.46-6.65-4.92-.22-1.63-1.44-2.46-3.31-3.31l4.35-1.85,1.27-.9c3,1,4.15.41,3.63-1.55-.22-.83-.94-1.71-1-2.5-.25-3.68-5.17-4.5-8.58-5.57s-4.63.78-5.13,2.63H232.7c-2.77-1.07-5.83-1.92-7.44-4.06-.07-.43-.15-.86-.23-1.29,1.42-.29,3.85.47,4-1.08l7.51.13c2.86,2.45,6,2.53,9.08,2.23l4.65,1.56c1.15,1,2.79,1.34,4.19,2-3.7,1.25.4,3.3,1.18,5,1.59,3.56,1.55,3.56,6.26,5.39.25-.72-1-1.74,0-2.27,2.9,2.49,7.44,4.21,8.6,7.48-2.13.42-5.51-2.61-7.09-.19a10.48,10.48,0,0,1-2.4-1.62c-2.75-2.27-5.59-5.26-9.23-2.33a1.47,1.47,0,0,1-.81.15c-1.8,0-5.09-2.22-5.25-.33a6.78,6.78,0,0,0,3.3,6.28A7.13,7.13,0,0,1,250,143.91Z"/><path class="cls-5" d="M270.77,153.42l-2.08-1.12A1.87,1.87,0,0,0,270.77,153.42Z"/><path class="cls-4" d="M273.68,143a2.6,2.6,0,0,1,2.51.72A3.47,3.47,0,0,1,273.68,143Z"/><path class="cls-4" d="M217.73,121.54c.94.07,2.14-.3,2.73.55s-.59.94-1.66.8a5.46,5.46,0,0,0-3.33.79C214.36,122,216.37,121.94,217.73,121.54Z"/><path class="cls-3" d="M225.56,181.42c-5.4,1-6.63,4.24-7.46,7.54a3.9,3.9,0,0,0,2.26,4.5c2.89-1.94,5.49-3.91,8.32-5.86-.07-1-.2-1.95-.23-2.9C227.49,183.6,226.52,182.51,225.56,181.42Z"/><path class="cls-6" d="M210.71,176.17c-1.28-.67-3.42-.24-2.92-1.73l-3.3-3.76c-4.26-1.14-5,1.13-6.1,2.64s-.6,3.58,2,4.51C204.77,179.36,207.24,177,210.71,176.17Z"/><path class="cls-6" d="M247.44,174.25l-2.91-1.46c-2.19-.38-4.4-.81-6.62-1.14-1.17-.17-2.63-.44-2.92.61s.92,1.67,1.95,2.14C241,176.25,244.33,175.52,247.44,174.25Z"/><path class="cls-6" d="M228.57,154l4.23-1.19c1.2.62,2.64-.13,3.9.9-.79,1.43-2.66,2.1-4.59,2.71-1.11.36-2.43.91-3.75.05S228.65,154.86,228.57,154Z"/><path class="cls-4" d="M210.57,169.32l-4.45.41-1.63,1,3.3,3.76C211.88,173.74,213.7,172.33,210.57,169.32Z"/><path class="cls-4" d="M245.26,160.3c2.11-.28,2.12-1.48,1.53-2.84-.73-.52-1.45-1.05-2.17-1.58l-4.55,1.21.48,1.28C241.8,159.52,243.23,160.57,245.26,160.3Z"/><path class="cls-3" d="M236.58,181.79c1.25-.5,1.77-1.35.92-2.38-1-1.18-2.33-1-3.55-.62-1.3.53-2,1.24-1,2.35A3.1,3.1,0,0,0,236.58,181.79Z"/><path class="cls-6" d="M250.75,159.21l.48.14c.51-1,2.15-1.89.64-3.15a6.55,6.55,0,0,0-5.4-1,9.38,9.38,0,0,0-1.85.73c.72.53,1.44,1.06,2.17,1.58A3.82,3.82,0,0,1,250.75,159.21Z"/><path class="cls-4" d="M192.88,182.55c-2.63-1.23-5.15-2.55-6.28-4.61-.29-.54-1.3-1.4.48-1.39a6.84,6.84,0,0,1,2.09.89Z"/><path class="cls-6" d="M240.07,157.09c-1.92.28-4.17.34-4.35,2.65l4.83-1.37Z"/><path class="cls-6" d="M251.23,159.35l-.48-.14C250.82,159.57,251,159.63,251.23,159.35Z"/><path class="cls-5" d="M168.24,127.59l0,.29a3.29,3.29,0,0,0-2.89,1l-.59-.16"/><path class="cls-5" d="M188.85,169.46c5.35-3.28,12-5.11,18.43-6.92-6.6-2.55-8.93-5-5.55-6.6,6.38-3.08,10.44-8,19.44-8.44,2.35-.12,4.78-.89,5.24-2.28,1.23-3.66,5.67-5.82,6.64-9.41-7.49-1-13.68-.36-16.34,4.3a2.25,2.25,0,0,1-2.45,1.24c-7.4-1.12-8,2.29-9.11,5.47-.43,1.24-1.85,2-3.89,1.45-1.69-.42-1.82-1.57-1.24-2.48.35-.56,3.14-.44,1-1.62a3.6,3.6,0,0,0-4.25.49,10,10,0,0,1-5.24,3.86c-1.94,1.76-5.51,2-8.46,3l-2.25,1.82c1.25,2.8-1.08,3.55-4.93,3.45a1.76,1.76,0,0,0-.45.5c3.48,3.77,7,7.52,10.38,11.31C186.64,169.52,187.35,170.38,188.85,169.46Z"/><path class="cls-4" d="M184.68,130.63c3.41,3.87,4.46,4,9,1,1.19.06,3.13,1.22,2.9-.6-.29-2.27.68-3.7,5.29-2.34a26.21,26.21,0,0,0,4.29.56c1,.45,1.92.94,2.93,1.32,4,1.51,3.67,2.18.56,3.33-2.87,1.06-6.53,1.8-7.62,4.34-.48,1.12-1.72,1.47-3.28-.4-1.68-2-5.07-2.3-6.38-.73-3.06,3.69-11.73,4.23-18.74,1.21-3.26-1.41-8-.95-10.4-3.68-.06-.17,0-.3.2-.4l7.25-1.54h0c2.82,3,5.86,1.93,6.12.26.54-3.34,3.49-3.28,7.9-2.26Z"/><path class="cls-6" d="M233.05,135.81c-7.49-1-13.68-.36-16.34,4.3a2.25,2.25,0,0,1-2.45,1.24c-7.4-1.12-8,2.29-9.11,5.47-.43,1.24-1.85,2-3.89,1.45-1.69-.42-1.82-1.57-1.24-2.48.35-.56,3.14-.44,1-1.62a3.6,3.6,0,0,0-4.25.49,10,10,0,0,1-5.24,3.86c-.12-.11-.32-.21-.37-.32-.86-1.73-5.54-3.24-3.58-4.87s5.75-2.63,9.68-2c4.71.77,6.69-.9,9.88-1.74,4.23-1.12,7.16-2.79,10.47-4.37,5.25-2.49,12.76-1.15,19.15-1.13,2.66,0,4.34-2,7.65-.28L240,135.68C238,136.35,235.35,135.66,233.05,135.81Z"/><path class="cls-6" d="M234.58,125.94c.5-1.85,1.74-3.7,5.13-2.63s8.33,1.89,8.58,5.57c.05.79.77,1.67,1,2.5.52,2-.6,2.59-3.63,1.55-1.47-1.52-2.52-3.16-5.86-3.4C237,129.33,237,126.74,234.58,125.94Z"/><path class="cls-4" d="M183,151.48l-2.25,1.82a6.79,6.79,0,0,0-5.32.7c-3.37.41-6.12-.13-7.58-2.58,2.55-3,5.49-5.55,12.2-5,1.65.12,3.14-1.18,4.69,0,1.33,1,.07,2-.6,2.88C183.65,150,182.66,150.52,183,151.48Z"/><path class="cls-6" d="M206.21,129.21a26.21,26.21,0,0,1-4.29-.56c-4.61-1.36-5.58.07-5.29,2.34.23,1.82-1.71.66-2.9.6-3.1-3.08-1.84-7.36,2.33-8.1.3-.06.64-.06,1-.09C198.64,126.24,205.2,126,206.21,129.21Z"/><path class="cls-6" d="M180.09,146.45c-6.71-.58-9.65,2-12.2,5-.37,0-.73,0-1.1,0-1.92-2.33-3.29-4.65-1.86-6.93,2.53,1.56,4.82,2.23,7.29.68C176.53,142.48,176.63,142.53,180.09,146.45Z"/><path class="cls-4" d="M184.74,130.65a7.09,7.09,0,0,0-.91-1c-2.4-1.94-4-3.85-.17-4.81,1.53-.38,3.9-.39,4.82,1.18,1.36,2.33,1.58,4.46-3.3,4.52a4.37,4.37,0,0,0-.5.09Z"/><path class="cls-6" d="M225.26,121.87c1.61,2.14,4.67,3,7.44,4.06-2.37.54-4.68,1.88-7.63-.75C223.6,123.87,222.46,122.39,225.26,121.87Z"/><path class="cls-6" d="M166.91,130.31l-1.6-1.4a3.29,3.29,0,0,1,2.89-1C168.61,128.94,168.3,129.79,166.91,130.31Z"/><path class="cls-4" d="M170.73,132.66l.78-.72.53.34-1.32.37Z"/><path class="cls-6" d="M198.11,120.93a3.12,3.12,0,0,1,.54.63C197.79,121.48,197.6,121.27,198.11,120.93Z"/><path class="cls-4" d="M166.79,151.41c.37,0,.73,0,1.1,0,1.46,2.45,4.21,3,7.58,2.58l.39,2.75a1.76,1.76,0,0,0-.45.5c-4.08,1.17-1.83,3.37-.63,5.27,1,1.62,2,3-1,3.81C169.07,161.54,169.18,156.35,166.79,151.41Z"/><path class="cls-6" d="M200.78,115c-1.91.59-4-.18-6.15-.75A2.22,2.22,0,0,1,194,112C198,111,199,113.5,200.78,115Z"/><path class="cls-6" d="M175.86,156.75l-.39-2.75a6.79,6.79,0,0,1,5.32-.7C182,156.1,179.71,156.85,175.86,156.75Z"/></g><polyline class="cls-7" points="34.82 159.41 179.94 221.6 120.98 118.59 120.98 88.79 93.77 77.13"/><polyline class="cls-7" points="249.26 31.78 120.98 88.79 120.98 118.59 246.66 58.99"/><polyline class="cls-7" points="180.58 360.89 180.58 222.25 310.15 126.36"/><polyline class="cls-7" points="246.66 58.99 310.15 126.36 302.38 257.23 180.58 360.89 35.46 298.69 35.46 160.05 34.82 159.41 93.77 104.34 93.77 77.13 222.05 20.12 249.26 31.78 246.66 58.99"/><polygon class="cls-7" points="51.01 160.05 104.14 110.82 158.56 202.81 51.01 160.05"/><polyline class="cls-7" points="50.36 159.41 104.78 154.22 103.49 110.17"/><line class="cls-7" x1="157.91" y1="202.16" x2="104.78" y2="154.22"/></g></svg>