<svg xmlns="http://www.w3.org/2000/svg" viewBox="0 0 1024 768"><defs><style>.cls-1{fill:#fff;}</style></defs><title>speechbub</title><g id="Layer_7" data-name="Layer 7"><circle class="cls-1" cx="567" cy="411" r="7"/><circle class="cls-1" cx="813.5" cy="352.5" r="3.5"/><path class="cls-1" d="M1011,226H958a10.9,10.9,0,0,0-6.17,1.9A10,10,0,0,0,946,237v27H843a10,10,0,0,0-10,10v78a10,10,0,0,0-10,10,9.88,9.88,0,0,0,.86,4c-.29,0-.57,0-.86,0a20,20,0,0,0-20,20,19.76,19.76,0,0,0,1.68,8H650a9.88,9.88,0,0,0-4,.82,10,10,0,0,0-7.54,9.68v69l-54.27-.06a26,26,0,0,0,.74-16.68,13.16,13.16,0,0,0,2.53.25,13.5,13.5,0,1,0-13.43-14.86,26,26,0,0,0-29.07.63V387.6A21.6,21.6,0,0,0,523.4,366H163.6A21.6,21.6,0,0,0,142,387.6V517.4A21.6,21.6,0,0,0,163.6,539H523.4A21.6,21.6,0,0,0,545,517.4v-24l103.49.11h0a10,10,0,0,0,10-10v-69h64a10,10,0,0,0,3.11-.5H843a10,10,0,0,0,10-10V284H956a10,10,0,0,0,10-10V248h45a11,11,0,1,0,0-22Z"/></g></svg>