<svg xmlns="http://www.w3.org/2000/svg" viewBox="0 0 72 72"><defs><style>.cls-1{fill:#f7a73c;}.cls-2{fill:#ffe67b;}</style></defs><title>twit</title><g id="Layer_7" data-name="Layer 7"><circle class="cls-1" cx="35.51" cy="35.51" r="35.51"/><path class="cls-2" d="M50.46,23l2.48-.51c-.07.35,0,.66-.17.77-2.6,2-3,4.92-3.37,8-2,14.43-16.86,22.65-29.18,16.26-.44-.23-1-.33-1.22-1.07,3.2-.47,6.43-.87,9.16-3.42A7.76,7.76,0,0,1,22,38c.62-.76,1.53-.13,2.31-.69-2.83-1.63-4.8-3.84-4.94-7.25.84-.58,1.49.52,2.34,0,.21-.14,0-.37-.15-.53A8.64,8.64,0,0,1,19.7,21.8c.37-1.53.77-1.75,1.88-.52a20.35,20.35,0,0,0,12,6.61c1.37.23,1.75,0,1.84-1.44.43-7.26,5.65-9.92,12-6.1,1,.58,1.62.14,2.42,0,.64-.13,1.38-.91,1.9-.28.63.78-.43,1.29-.74,1.92C50.89,22.19,50.77,22.42,50.46,23Z"/></g></svg>