<svg xmlns="http://www.w3.org/2000/svg" viewBox="0 0 1024 768"><defs><style>.cls-1{fill:#f7a73c;}.cls-2{fill:#ffe67b;}</style></defs><title>twit</title><g id="Layer_7" data-name="Layer 7"><circle class="cls-1" cx="602.79" cy="391.55" r="37.8"/><path class="cls-2" d="M618.71,378.26l2.64-.54c-.08.38,0,.71-.18.82-2.77,2.18-3.15,5.24-3.59,8.48-2.13,15.37-18,24.12-31.06,17.32-.47-.24-1.06-.35-1.3-1.14,3.41-.5,6.84-.92,9.75-3.64-3.27-.71-5.46-2.4-6.56-5.37.66-.82,1.63-.14,2.46-.74-3-1.73-5.11-4.09-5.26-7.72.89-.62,1.58.55,2.49,0,.22-.16,0-.4-.16-.57a9.19,9.19,0,0,1-2-8.26c.39-1.62.82-1.85,2-.54a21.66,21.66,0,0,0,12.8,7c1.46.25,1.86,0,2-1.53.46-7.73,6-10.57,12.75-6.5,1,.63,1.72.15,2.56,0s1.48-1,2-.31c.68.83-.46,1.38-.79,2.05Z"/></g></svg>